<svg version="1" xmlns="http://www.w3.org/2000/svg" width="360" height="360" viewBox="0 0 270.000000 270.000000"><path d="M123.5 38.6c-5.4 1.3-10.6 3.8-11.5 5.4-1.5 2.8-1.2 8.7.6 10.4.8.9 2.7 1.6 4.2 1.6 4.7 0 9.8 1.9 12.3 4.6l2.4 2.6v67.1c0 62.2-.1 67.6-1.8 73.1-4.2 13.6-12.4 19.6-26.6 19.6-4.4 0-6.7-.7-10.8-3-2.9-1.7-5.3-3.4-5.2-3.8 0-.4 1.9-2.1 4.1-3.7 6.6-4.8 8.3-7.8 8.2-14-.3-10.6-6.1-15.9-17.4-15.9-12.1 0-19.6 7-20.7 19.3-1.9 20.6 18 37.1 44.7 37.1 23.8-.1 40.8-8.7 48-24.3 7.2-15.5 7.9-23.8 8-94.4V63.1l2.3-2.6c1.6-1.9 4-3 9.2-4 4.2-.9 7.5-2.2 8.3-3.2 1.6-2.2.8-6.9-1.6-9.6-4-4.5-7.4-5.1-31.7-5.3-12.6-.2-23.9 0-25 .2z"/></svg>